<?xml version="1.0" encoding="UTF-8" standalone="no"?>
<!DOCTYPE svg PUBLIC "-//W3C//DTD SVG 1.1//EN" "http://www.w3.org/Graphics/SVG/1.1/DTD/svg11.dtd">
<svg width="100%" height="100%" viewBox="0 0 481 473" version="1.1" xmlns="http://www.w3.org/2000/svg" xmlns:xlink="http://www.w3.org/1999/xlink" xml:space="preserve" xmlns:serif="http://www.serif.com/" style="fill-rule:evenodd;clip-rule:evenodd;stroke-linecap:round;stroke-linejoin:round;stroke-miterlimit:1.5;">
    <g transform="matrix(1,0,0,1,-2941,-593)">
        <g id="API" transform="matrix(1,0,0,1,-577.163,593.735)">
            <rect x="3518.82" y="0" width="479.817" height="471.78" style="fill:none;"/>
            <g transform="matrix(1,0,0,1,2055.46,-463.441)">
                <g transform="matrix(1,0,0,1,273.938,313.32)">
                    <path d="M1485.92,267.885L1485.92,268.263L1528.09,310.437L1528.37,310.437L1528.37,500.415L1332.91,500.415L1332.91,267.885L1485.92,267.885Z" style="fill:white;"/>
                    <path d="M1485.54,267.885L1528.37,310.711L1528.37,322.253L1332.91,322.253L1332.91,267.885L1485.54,267.885Z" style="fill:rgb(140,46,64);"/>
                    <g transform="matrix(-1.01583,1.24403e-16,-1.24362e-16,-1.01549,3037.8,583.142)">
                        <path d="M1485.92,268.263L1485.92,267.868L1528.49,267.868L1528.49,310.437L1528.09,310.437L1485.92,268.263Z" style="fill:rgb(115,20,27);"/>
                    </g>
                    <g transform="matrix(1.45661,0,0,1.45661,-643.955,-125.798)">
                        <text x="1370.14px" y="297.885px" style="font-family:'ArialMT', 'Arial', sans-serif;font-size:24px;fill:white;">API</text>
                    </g>
                </g>
                <g transform="matrix(1,0,0,1,-6.9378,-6.97967)">
                    <path d="M1715.75,682.136C1712.93,681.883 1710.1,681.883 1707.28,682.136L1705.51,690.174C1702.64,690.614 1699.82,691.37 1697.1,692.427L1691.56,686.349C1688.99,687.539 1686.53,688.957 1684.22,690.585L1686.71,698.428C1684.44,700.248 1682.37,702.313 1680.55,704.585L1672.71,702.094C1671.08,704.408 1669.66,706.864 1668.48,709.431L1674.55,714.978C1673.5,717.69 1672.74,720.511 1672.3,723.388L1664.26,725.152C1664.01,727.971 1664.01,730.807 1664.26,733.625L1672.3,735.39C1672.74,738.267 1673.5,741.087 1674.55,743.8L1668.48,749.346C1669.66,751.914 1671.08,754.369 1672.71,756.684L1680.55,754.193C1682.37,756.465 1684.44,758.53 1686.71,760.35L1684.22,768.193C1686.53,769.821 1688.99,771.239 1691.56,772.429L1697.1,766.35C1699.82,767.408 1702.64,768.163 1705.51,768.604L1707.28,776.642C1710.1,776.894 1712.93,776.894 1715.75,776.642L1717.52,768.604C1720.39,768.163 1723.21,767.408 1725.92,766.35L1731.47,772.429C1734.04,771.239 1736.5,769.821 1738.81,768.193L1736.32,760.35C1738.59,758.53 1740.65,756.465 1742.48,754.193L1750.32,756.684C1751.95,754.369 1753.37,751.914 1754.56,749.346L1748.48,743.8C1749.53,741.087 1750.29,738.267 1750.73,735.39L1758.77,733.625C1759.02,730.807 1759.02,727.971 1758.77,725.152L1750.73,723.388C1750.29,720.511 1749.53,717.69 1748.48,714.978L1754.56,709.431C1753.37,706.864 1751.95,704.408 1750.32,702.094L1742.48,704.585C1740.65,702.313 1738.59,700.248 1736.32,698.428L1738.81,690.585C1736.5,688.957 1734.04,687.539 1731.47,686.349L1725.92,692.427C1723.21,691.37 1720.39,690.614 1717.52,690.174L1715.75,682.136ZM1711.52,710.137C1722.14,710.137 1730.77,718.763 1730.77,729.389C1730.77,740.014 1722.14,748.641 1711.52,748.641C1700.89,748.641 1692.26,740.014 1692.26,729.389C1692.26,718.763 1700.89,710.137 1711.52,710.137Z" style="fill:none;stroke:rgb(115,20,27);stroke-width:4.27px;"/>
                </g>
            </g>
        </g>
    </g>
</svg>
