<?xml version="1.0" encoding="UTF-8" standalone="no"?>
<!DOCTYPE svg PUBLIC "-//W3C//DTD SVG 1.1//EN" "http://www.w3.org/Graphics/SVG/1.1/DTD/svg11.dtd">
<svg width="100%" height="100%" viewBox="0 0 481 473" version="1.1" xmlns="http://www.w3.org/2000/svg" xmlns:xlink="http://www.w3.org/1999/xlink" xml:space="preserve" xmlns:serif="http://www.serif.com/" style="fill-rule:evenodd;clip-rule:evenodd;stroke-linejoin:round;stroke-miterlimit:2;">
    <g transform="matrix(1,0,0,1,-2373,-584)">
        <g id="JS" transform="matrix(1,0,0,1,-2882.5,584.273)">
            <rect x="5255.82" y="0" width="479.817" height="471.78" style="fill:none;"/>
            <g transform="matrix(1,0,0,1,4058.01,-152.06)">
                <g>
                    <path d="M1485.92,267.885L1485.92,268.263L1528.09,310.437L1528.37,310.437L1528.37,500.415L1332.91,500.415L1332.91,267.885L1485.92,267.885Z" style="fill:white;"/>
                    <path d="M1485.54,267.885L1528.37,310.711L1528.37,322.253L1332.91,322.253L1332.91,267.885L1485.54,267.885Z" style="fill:rgb(140,46,64);"/>
                    <g transform="matrix(-1.01583,1.24403e-16,-1.24362e-16,-1.01549,3037.8,583.142)">
                        <path d="M1485.92,268.263L1485.92,267.868L1528.49,267.868L1528.49,310.437L1528.09,310.437L1485.92,268.263Z" style="fill:rgb(115,20,27);"/>
                    </g>
                    <g transform="matrix(1.45661,0,0,1.45661,-643.955,-125.798)">
                        <text x="1370.14px" y="297.885px" style="font-family:'ArialMT', 'Arial', sans-serif;font-size:24px;fill:white;">JS</text>
                    </g>
                    <g transform="matrix(3.47861,0,0,3.47861,-3461.56,-939.298)">
                        <text x="1395.02px" y="394.801px" style="font-family:'ArialMT', 'Arial', sans-serif;font-size:24px;fill:rgb(115,20,27);">{;}</text>
                    </g>
                </g>
            </g>
        </g>
    </g>
</svg>
