<?xml version="1.0" encoding="UTF-8" standalone="no"?>
<!DOCTYPE svg PUBLIC "-//W3C//DTD SVG 1.1//EN" "http://www.w3.org/Graphics/SVG/1.1/DTD/svg11.dtd">
<svg width="100%" height="100%" viewBox="0 0 481 473" version="1.1" xmlns="http://www.w3.org/2000/svg" xmlns:xlink="http://www.w3.org/1999/xlink" xml:space="preserve" xmlns:serif="http://www.serif.com/" style="fill-rule:evenodd;clip-rule:evenodd;stroke-linecap:round;stroke-linejoin:round;stroke-miterlimit:1.5;">
    <g transform="matrix(1,0,0,1,-1144,-1305)">
        <g id="product-design" transform="matrix(1,0,0,1,-3532.61,1305.56)">
            <rect x="4676.82" y="0" width="479.817" height="471.78" style="fill:none;"/>
            <g>
                <g transform="matrix(1,0,0,1,4267.7,-481.266)">
                    <rect x="487.047" y="589.676" width="308.237" height="185.519" style="fill:none;stroke:rgb(115,114,111);stroke-width:1px;"/>
                </g>
                <g transform="matrix(1,0,0,1,4267.7,-481.266)">
                    <path d="M488.349,632.349L795.107,631.074" style="fill:none;stroke:rgb(128,128,128);stroke-width:1px;"/>
                </g>
                <g transform="matrix(1,0,0,1,4098.32,-629.639)">
                    <g transform="matrix(1,0,0,1,89.1627,103.652)">
                        <rect x="599.166" y="706.935" width="96.711" height="71.382" style="fill:none;stroke:rgb(128,128,128);stroke-width:1px;"/>
                    </g>
                    <g transform="matrix(1,0,0,1,89.1627,103.652)">
                        <path d="M599.166,706.935L695.877,778.318" style="fill:none;stroke:rgb(128,128,128);stroke-width:1px;"/>
                    </g>
                    <g transform="matrix(1.02208,0,0,1.06054,75.8941,56.4928)">
                        <path d="M600.913,779.029L693.627,711.405" style="fill:none;stroke:rgb(128,128,128);stroke-width:0.96px;"/>
                    </g>
                </g>
                <g transform="matrix(1.15697,0,0,1.11949,4225.68,-613.302)">
                    <rect x="599.166" y="706.935" width="96.711" height="71.382" style="fill:rgb(191,149,149);"/>
                </g>
                <g transform="matrix(1.14758,0,0,1.12863,4123.58,-729.85)">
                    <g transform="matrix(1,0,0,1,89.1627,103.652)">
                        <rect x="599.166" y="706.935" width="96.711" height="71.382" style="fill:none;stroke:rgb(128,128,128);stroke-width:0.88px;"/>
                    </g>
                    <g transform="matrix(1,0,0,1,89.1627,103.652)">
                        <path d="M599.166,706.935L695.877,778.318" style="fill:none;stroke:rgb(128,128,128);stroke-width:0.88px;"/>
                    </g>
                    <g transform="matrix(1.04154,0,0,1.05263,62.397,62.116)">
                        <path d="M600.913,779.029L693.627,711.405" style="fill:none;stroke:rgb(128,128,128);stroke-width:0.84px;"/>
                    </g>
                </g>
                <g transform="matrix(1,0,0,1,4187.49,-525.987)">
                    <circle cx="595.881" cy="654.093" r="5.801" style="fill:white;"/>
                </g>
                <g transform="matrix(1,0,0,1,4213.87,-526.646)">
                    <circle cx="595.881" cy="654.093" r="5.801" style="fill:rgb(191,149,149);"/>
                </g>
                <g transform="matrix(1,0,0,1,4238.27,-526.383)">
                    <circle cx="595.881" cy="654.093" r="5.801" style="fill:rgb(115,20,27);"/>
                </g>
                <g transform="matrix(1,0,0,1,4267.22,-548.908)">
                    <g transform="matrix(1,0,0,1,-39.0293,-53.0623)">
                        <rect x="806.153" y="827.728" width="88.544" height="149.32" style="fill:none;stroke:rgb(128,128,128);stroke-width:1px;"/>
                    </g>
                    <g transform="matrix(1,0,0,1,-34.0762,-47.6139)">
                        <circle cx="847.98" cy="960.743" r="4.942" style="fill:none;stroke:rgb(128,128,128);stroke-width:1px;"/>
                    </g>
                    <g transform="matrix(1.67989,0,0,2.71044,-621.494,-1551.22)">
                        <rect x="832.146" y="861.398" width="42.213" height="43.72" style="fill:rgb(140,46,64);"/>
                    </g>
                    <g transform="matrix(0.475358,0,0,0.829407,505.102,227.984)">
                        <rect x="599.166" y="706.935" width="96.711" height="71.382" style="fill:none;stroke:white;stroke-width:1.48px;"/>
                    </g>
                    <g transform="matrix(0.475358,0,0,0.829407,505.102,227.984)">
                        <path d="M599.166,706.935L695.877,778.318" style="fill:none;stroke:white;stroke-width:1.48px;"/>
                    </g>
                    <g transform="matrix(0.495325,0,0,0.87407,492.267,192.618)">
                        <path d="M600.913,779.029L693.627,711.405" style="fill:none;stroke:white;stroke-width:1.41px;"/>
                    </g>
                    <g transform="matrix(1,0,0,1.52249,-39.0293,-495.215)">
                        <rect x="826.702" y="846.237" width="27.625" height="1.886" style="fill:white;"/>
                    </g>
                    <g transform="matrix(0.98189,0,0,2.73939,-23.2437,-1544.51)">
                        <rect x="826.049" y="856.931" width="45.59" height="0.523" style="fill:white;"/>
                    </g>
                </g>
                <g transform="matrix(1,0,0,1,4187.49,-525.987)">
                    <rect x="598.848" y="689.265" width="138.074" height="1.995" style="fill:none;stroke:black;stroke-width:4.88px;"/>
                </g>
                <g transform="matrix(1,0,0,1,4361.9,-638.785)">
                    <rect x="364.811" y="868.983" width="136.651" height="79.332" style="fill:white;stroke:rgb(115,114,111);stroke-width:1px;stroke-dasharray:4.25,4.19,0,0;"/>
                </g>
                <g transform="matrix(0.558411,0.558411,-0.558411,0.558411,4900.69,-501.002)">
                    <path d="M554.878,888.562L553.883,888.562L576.711,849.822L599.54,888.562L598.544,888.562L576.711,880.405L554.878,888.562Z" style="fill:white;stroke:rgb(115,20,27);stroke-width:4.63px;"/>
                </g>
            </g>
        </g>
    </g>
</svg>
