<svg id="logo" width="324" height="48" viewBox="0 0 324 48" fill="none" xmlns="http://www.w3.org/2000/svg">
  <path
    d="M25.639 35.07C25.639 33.3002 25.0144 31.9469 23.7651 31.01C22.5159 30.0523 20.2673 29.0529 17.0194 28.0119C13.7714 26.95 11.2001 25.909 9.30543 24.8888C4.142 22.0989 1.56028 18.3408 1.56028 13.6146C1.56028 11.1578 2.24735 8.97169 3.62149 7.05623C5.01645 5.11994 7.00479 3.61046 9.58651 2.52781C12.189 1.44515 15.1039 0.903824 18.331 0.903824C21.579 0.903824 24.473 1.4972 27.0131 2.68396C29.5532 3.8499 31.5207 5.50511 32.9157 7.64961C34.3314 9.7941 35.0393 12.2301 35.0393 14.9575H25.6702C25.6702 12.8755 25.0144 11.2619 23.7027 10.1168C22.391 8.95088 20.5484 8.36791 18.1749 8.36791C15.8847 8.36791 14.1045 8.85718 12.8345 9.83574C11.5644 10.7935 10.9294 12.0635 10.9294 13.6459C10.9294 15.1241 11.6685 16.3629 13.1468 17.3623C14.6458 18.3617 16.8424 19.2986 19.7364 20.173C25.0664 21.7762 28.9494 23.7645 31.3854 26.138C33.8214 28.5116 35.0393 31.468 35.0393 35.0075C35.0393 38.9425 33.5507 42.0343 30.5734 44.2829C27.5961 46.5107 23.5882 47.6246 18.5497 47.6246C15.0518 47.6246 11.8663 46.9896 8.99313 45.7195C6.11993 44.4287 3.92338 42.6694 2.4035 40.4416C0.904439 38.2138 0.154907 35.6321 0.154907 32.6964H9.55528C9.55528 37.7141 12.5534 40.223 18.5497 40.223C20.7774 40.223 22.5159 39.7753 23.7651 38.8801C25.0144 37.964 25.639 36.6939 25.639 35.07Z"
    stroke="#73141B" stroke-width="0.3" />
  <path
    d="M75.8263 1.52843V31.4785C75.8263 36.4545 74.2648 40.3895 71.1418 43.2836C68.0395 46.1776 63.7922 47.6246 58.3997 47.6246C53.0906 47.6246 48.8744 46.2192 45.7514 43.4085C42.6283 40.5978 41.0356 36.7356 40.9731 31.822V1.52843H50.3423V31.5409C50.3423 34.5182 51.0502 36.6939 52.4659 38.0681C53.9025 39.4214 55.8805 40.0981 58.3997 40.0981C63.6673 40.0981 66.3427 37.329 66.426 31.7908V1.52843H75.8263Z"
    stroke="#73141B" stroke-width="0.3" />
  <path
    d="M92.8782 30.9788V47H83.509V1.52843H101.248C104.662 1.52843 107.661 2.15304 110.242 3.40226C112.845 4.65148 114.844 6.43162 116.239 8.74267C117.634 11.0329 118.331 13.6459 118.331 16.5815C118.331 21.0371 116.801 24.5557 113.74 27.1374C110.7 29.6983 106.484 30.9788 101.092 30.9788H92.8782ZM92.8782 23.3898H101.248C103.726 23.3898 105.61 22.8068 106.901 21.6409C108.212 20.4749 108.868 18.8093 108.868 16.644C108.868 14.4162 108.212 12.6152 106.901 11.2411C105.589 9.86697 103.778 9.15908 101.467 9.11744H92.8782V23.3898Z"
    stroke="#73141B" stroke-width="0.3" />
  <path d="M144.908 37.6309H128.481L125.358 47H115.395L132.322 1.52843H141.004L158.025 47H148.062L144.908 37.6309ZM131.011 30.0419H142.378L136.663 13.0212L131.011 30.0419Z" stroke="#73141B" stroke-width="0.3" />
  <path d="M192.753 9.11744H178.824V47H169.455V9.11744H155.714V1.52843H192.753V9.11744Z" stroke="#73141B" stroke-width="0.3" />
  <path
    d="M232.947 31.8532C232.593 36.746 230.781 40.5978 227.513 43.4085C224.265 46.2192 219.976 47.6246 214.646 47.6246C208.816 47.6246 204.225 45.6675 200.873 41.7533C197.542 37.8182 195.876 32.4258 195.876 25.5759V22.7964C195.876 18.4241 196.647 14.5724 198.187 11.2411C199.728 7.90986 201.925 5.35937 204.777 3.58964C207.65 1.7991 210.981 0.903824 214.771 0.903824C220.017 0.903824 224.244 2.30919 227.45 5.11994C230.657 7.93068 232.51 11.8761 233.009 16.9563H223.64C223.411 14.0206 222.589 11.8969 221.173 10.5853C219.778 9.25277 217.644 8.58652 214.771 8.58652C211.648 8.58652 209.305 9.71082 207.744 11.9594C206.203 14.1872 205.412 17.6538 205.37 22.3592V25.7945C205.37 30.7081 206.109 34.2996 207.588 36.569C209.087 38.8384 211.439 39.9731 214.646 39.9731C217.54 39.9731 219.695 39.3173 221.11 38.0056C222.547 36.6731 223.369 34.6223 223.578 31.8532H232.947Z"
    stroke="#73141B" stroke-width="0.3" />
  <path d="M276.107 47H266.738V27.5122H248.468V47H239.099V1.52843H248.468V19.9544H266.738V1.52843H276.107V47Z" stroke="#73141B" stroke-width="0.3" />
  <path d="M310.555 37.6309H294.127L291.004 47H281.042L297.969 1.52843H306.651L323.671 47H313.709L310.555 37.6309ZM296.657 30.0419H308.025L302.31 13.0212L296.657 30.0419Z" stroke="#73141B" stroke-width="0.3" />
</svg>
